<svg width="198" height="60" viewBox="0 0 198 60" fill="none" xmlns="http://www.w3.org/2000/svg">
<path d="M78.9009 30.18C76.7916 30.18 75.0369 29.928 73.6369 29.424C72.2556 28.92 71.2196 28.0893 70.5289 26.932C69.8569 25.756 69.5209 24.188 69.5209 22.228C69.5209 20.2307 69.8662 18.6627 70.5569 17.524C71.2662 16.3853 72.3116 15.5733 73.6929 15.088C75.0929 14.6027 76.8289 14.36 78.9009 14.36C81.0289 14.36 82.7836 14.612 84.1649 15.116C85.5462 15.6013 86.5729 16.4227 87.2449 17.58C87.9356 18.7187 88.2809 20.268 88.2809 22.228C88.2809 24.2253 87.9262 25.812 87.2169 26.988C86.5262 28.1453 85.4809 28.9667 84.0809 29.452C82.6996 29.9373 80.9729 30.18 78.9009 30.18ZM78.9009 27.856C80.1702 27.856 81.2156 27.7813 82.0369 27.632C82.8769 27.464 83.5209 27.184 83.9689 26.792C84.4356 26.3813 84.7529 25.8213 84.9209 25.112C85.1076 24.384 85.2009 23.4507 85.2009 22.312C85.2009 21.1547 85.1076 20.212 84.9209 19.484C84.7529 18.7373 84.4356 18.1587 83.9689 17.748C83.5209 17.3373 82.8769 17.0573 82.0369 16.908C81.2156 16.74 80.1702 16.656 78.9009 16.656C77.6502 16.656 76.6142 16.74 75.7929 16.908C74.9716 17.0573 74.3276 17.3373 73.8609 17.748C73.3942 18.1587 73.0676 18.7373 72.8809 19.484C72.7129 20.212 72.6289 21.1547 72.6289 22.312C72.6289 23.4507 72.7222 24.384 72.9089 25.112C73.0956 25.8213 73.4222 26.3813 73.8889 26.792C74.3556 27.184 74.9996 27.464 75.8209 27.632C76.6422 27.7813 77.6689 27.856 78.9009 27.856ZM77.4169 32.028L77.5009 23.04L77.4169 12.484H80.4129L80.3009 21.108L80.4129 32L77.4169 32.028ZM92.225 32L92.337 22.928L92.225 12.484C92.225 12.484 92.4303 12.4653 92.841 12.428C93.2703 12.3907 93.821 12.344 94.493 12.288C95.165 12.232 95.9023 12.1853 96.705 12.148C97.5076 12.1107 98.2823 12.092 99.029 12.092C100.802 12.092 102.174 12.652 103.145 13.772C104.134 14.8733 104.629 16.5347 104.629 18.756C104.629 20.1373 104.452 21.2853 104.097 22.2C103.742 23.096 103.266 23.796 102.669 24.3C102.09 24.804 101.428 25.168 100.681 25.392C99.953 25.5973 99.2063 25.7 98.441 25.7C97.825 25.7 97.1903 25.6813 96.537 25.644C95.8836 25.588 95.4356 25.56 95.193 25.56V32H92.225ZM98.581 23.264C99.141 23.264 99.589 23.2267 99.925 23.152C100.28 23.0773 100.56 22.9467 100.765 22.76C101.045 22.48 101.232 21.9853 101.325 21.276C101.437 20.5667 101.493 19.6333 101.493 18.476C101.493 17.5427 101.446 16.8333 101.353 16.348C101.278 15.844 101.176 15.4893 101.045 15.284C100.914 15.06 100.784 14.9107 100.653 14.836C100.485 14.7053 100.205 14.6027 99.813 14.528C99.421 14.4347 98.9543 14.388 98.413 14.388C97.7783 14.388 97.1716 14.416 96.593 14.472C96.0143 14.528 95.5476 14.584 95.193 14.64V22.956C95.3796 22.9747 95.7996 23.0307 96.453 23.124C97.125 23.2173 97.8343 23.264 98.581 23.264ZM108.823 32V12.484H119.071V15.06L110.475 14.948L111.847 13.632L111.623 21.92L110.335 20.828H118.371V23.32H110.335L111.623 22.172L111.847 30.824L110.475 29.48L119.071 29.424V32H108.823ZM123.534 32V12.484H126.502L126.418 21.948V30.768L125.074 29.424H133.838L132.494 30.768L132.522 22.088L132.466 12.484H135.434L135.35 22.088L135.406 30.768L134.062 29.424H142.742L141.398 30.768V22.004L141.314 12.484H144.282V32H123.534ZM156.392 32.392C155.366 32.392 154.395 32.2427 153.48 31.944C152.566 31.6453 151.754 31.1227 151.044 30.376C150.354 29.6293 149.812 28.5933 149.42 27.268C149.028 25.9427 148.832 24.2533 148.832 22.2C148.832 20.1467 149.028 18.4667 149.42 17.16C149.812 15.8347 150.354 14.808 151.044 14.08C151.754 13.3333 152.566 12.82 153.48 12.54C154.395 12.2413 155.366 12.092 156.392 12.092C157.419 12.092 158.38 12.2413 159.276 12.54C160.191 12.82 160.994 13.3333 161.684 14.08C162.394 14.808 162.944 15.8253 163.336 17.132C163.728 18.4387 163.924 20.128 163.924 22.2C163.924 24.2533 163.728 25.9427 163.336 27.268C162.944 28.5933 162.394 29.6293 161.684 30.376C160.994 31.1227 160.191 31.6453 159.276 31.944C158.38 32.2427 157.419 32.392 156.392 32.392ZM156.392 29.732C157.139 29.732 157.792 29.648 158.352 29.48C158.912 29.312 159.37 28.976 159.724 28.472C160.098 27.9493 160.368 27.1933 160.536 26.204C160.723 25.2147 160.816 23.8987 160.816 22.256C160.816 20.632 160.732 19.3253 160.564 18.336C160.396 17.328 160.135 16.572 159.78 16.068C159.426 15.5453 158.959 15.1907 158.38 15.004C157.82 14.8173 157.158 14.724 156.392 14.724C155.59 14.724 154.908 14.8173 154.348 15.004C153.807 15.1907 153.359 15.5453 153.004 16.068C152.65 16.572 152.388 17.328 152.22 18.336C152.052 19.3253 151.968 20.6413 151.968 22.284C151.968 23.908 152.052 25.2147 152.22 26.204C152.388 27.1933 152.65 27.9493 153.004 28.472C153.378 28.976 153.844 29.312 154.404 29.48C154.964 29.648 155.627 29.732 156.392 29.732ZM179.295 32L171.539 21.892L178.735 12.484H182.319L174.899 21.724V21.892L183.047 32H179.295ZM168.487 32L168.571 22.088L168.487 12.484H171.483V32H168.487Z" fill="#63A60E"/>
<path d="M83.02 50.168C82.58 50.168 82.164 50.104 81.772 49.976C81.38 49.848 81.032 49.624 80.728 49.304C80.432 48.984 80.2 48.54 80.032 47.972C79.864 47.404 79.78 46.68 79.78 45.8C79.78 44.92 79.864 44.2 80.032 43.64C80.2 43.072 80.432 42.632 80.728 42.32C81.032 42 81.38 41.78 81.772 41.66C82.164 41.532 82.58 41.468 83.02 41.468C83.46 41.468 83.872 41.532 84.256 41.66C84.648 41.78 84.992 42 85.288 42.32C85.592 42.632 85.828 43.068 85.996 43.628C86.164 44.188 86.248 44.912 86.248 45.8C86.248 46.68 86.164 47.404 85.996 47.972C85.828 48.54 85.592 48.984 85.288 49.304C84.992 49.624 84.648 49.848 84.256 49.976C83.872 50.104 83.46 50.168 83.02 50.168ZM83.02 49.028C83.34 49.028 83.62 48.992 83.86 48.92C84.1 48.848 84.296 48.704 84.448 48.488C84.608 48.264 84.724 47.94 84.796 47.516C84.876 47.092 84.916 46.528 84.916 45.824C84.916 45.128 84.88 44.568 84.808 44.144C84.736 43.712 84.624 43.388 84.472 43.172C84.32 42.948 84.12 42.796 83.872 42.716C83.632 42.636 83.348 42.596 83.02 42.596C82.676 42.596 82.384 42.636 82.144 42.716C81.912 42.796 81.72 42.948 81.568 43.172C81.416 43.388 81.304 43.712 81.232 44.144C81.16 44.568 81.124 45.132 81.124 45.836C81.124 46.532 81.16 47.092 81.232 47.516C81.304 47.94 81.416 48.264 81.568 48.488C81.728 48.704 81.928 48.848 82.168 48.92C82.408 48.992 82.692 49.028 83.02 49.028ZM88.2033 50V41.636H89.4753L89.4393 45.608L88.8753 45.188H93.3033L92.7393 45.608L92.7033 41.636H93.9753V50H92.7033L92.7393 45.872L93.3033 46.292H88.8753L89.4393 45.872L89.4753 50H88.2033ZM95.6044 50.168L95.3884 49.22C95.5004 49.204 95.6044 49.188 95.7004 49.172C95.7964 49.148 95.8764 49.124 95.9404 49.1C96.1004 49.044 96.2244 48.964 96.3124 48.86C96.4004 48.756 96.4684 48.58 96.5164 48.332C96.5724 48.084 96.6124 47.724 96.6364 47.252L97.0084 41.636H101.856V50H100.584L100.644 42.728H98.1724L97.8604 47.372C97.8204 47.94 97.7524 48.416 97.6564 48.8C97.5604 49.184 97.3924 49.476 97.1524 49.676C96.9844 49.82 96.7604 49.936 96.4804 50.024C96.2084 50.12 95.9164 50.168 95.6044 50.168ZM103.035 50L105.315 41.636H107.043L109.323 50H108.027L107.379 47.444L108.051 47.888H104.331L104.979 47.444L104.343 50H103.035ZM104.991 47.372L104.559 46.796H107.811L107.379 47.372L106.083 42.224L106.791 42.776H105.579L106.275 42.224L104.991 47.372ZM110.528 50V41.636H111.752L111.704 45.884V48.176L114.8 41.636H116.552V50H115.328L115.376 46.148V42.932L112.04 50H110.528ZM113.516 41.324C112.908 41.324 112.436 41.18 112.1 40.892C111.772 40.604 111.592 40.144 111.56 39.512L112.376 39.476C112.416 39.764 112.52 39.98 112.688 40.124C112.856 40.268 113.132 40.34 113.516 40.34C113.94 40.34 114.236 40.268 114.404 40.124C114.572 39.98 114.676 39.764 114.716 39.476L115.436 39.512C115.42 39.936 115.332 40.284 115.172 40.556C115.012 40.82 114.792 41.016 114.512 41.144C114.24 41.264 113.908 41.324 113.516 41.324ZM118.906 50V41.636H120.178L120.142 45.608L119.578 45.188H124.006L123.442 45.608L123.406 41.636H124.678V50H123.406L123.442 45.872L124.006 46.292H119.578L120.142 45.872L120.178 50H118.906ZM126.32 46.604V45.536H129.176V46.604H126.32ZM130.776 50L131.064 41.636H132.804L134.544 46.88H134.628L136.392 41.636H138.132L138.42 50H137.16L137.112 42.968H137.028L135.312 48.104H133.872L132.168 42.968H132.084L132.036 50H130.776ZM139.539 50L141.819 41.636H143.547L145.827 50H144.531L143.883 47.444L144.555 47.888H140.835L141.483 47.444L140.847 50H139.539ZM141.495 47.372L141.063 46.796H144.315L143.883 47.372L142.587 42.224L143.295 42.776H142.083L142.779 42.224L141.495 47.372ZM147.031 50L147.079 46.112L147.031 41.636C147.031 41.636 147.119 41.628 147.295 41.612C147.479 41.596 147.715 41.576 148.003 41.552C148.291 41.528 148.607 41.508 148.951 41.492C149.295 41.476 149.627 41.468 149.947 41.468C150.707 41.468 151.295 41.708 151.711 42.188C152.135 42.66 152.347 43.372 152.347 44.324C152.347 44.916 152.271 45.408 152.119 45.8C151.967 46.184 151.763 46.484 151.507 46.7C151.259 46.916 150.975 47.072 150.655 47.168C150.343 47.256 150.023 47.3 149.695 47.3C149.431 47.3 149.159 47.292 148.879 47.276C148.599 47.252 148.407 47.24 148.303 47.24V50H147.031ZM149.755 46.256C149.995 46.256 150.187 46.24 150.331 46.208C150.483 46.176 150.603 46.12 150.691 46.04C150.811 45.92 150.891 45.708 150.931 45.404C150.979 45.1 151.003 44.7 151.003 44.204C151.003 43.804 150.983 43.5 150.943 43.292C150.911 43.076 150.867 42.924 150.811 42.836C150.755 42.74 150.699 42.676 150.643 42.644C150.571 42.588 150.451 42.544 150.283 42.512C150.115 42.472 149.915 42.452 149.683 42.452C149.411 42.452 149.151 42.464 148.903 42.488C148.655 42.512 148.455 42.536 148.303 42.56V46.124C148.383 46.132 148.563 46.156 148.843 46.196C149.131 46.236 149.435 46.256 149.755 46.256ZM158.777 50L155.453 45.668L158.537 41.636H160.073L156.893 45.596V45.668L160.385 50H158.777ZM154.145 50L154.181 45.752L154.145 41.636H155.429V50H154.145ZM161.375 50V41.636H165.767V42.74L162.083 42.692L162.671 42.128L162.575 45.68L162.023 45.212H165.467V46.28H162.023L162.575 45.788L162.671 49.496L162.083 48.92L165.767 48.896V50H161.375ZM168.784 50L168.808 42.704L166.468 42.74V41.636H172.384V42.74L170.02 42.704L170.044 50H168.784Z" fill="#63A60E"/>
<path opacity="0.2" d="M54.6482 59.0669C54.6482 58.5552 43.174 58.1338 29.0366 58.1338C14.8993 58.1338 3.42505 58.5552 3.42505 59.0669C3.42505 59.5786 14.8993 60 29.0366 60C43.2069 60 54.6482 59.5786 54.6482 59.0669Z" fill="#5D5D5D"/>
<path d="M29.3985 11.8098C40.544 11.8098 49.5853 20.0873 49.5853 30.2913V48.7727H29.3985C18.253 48.7727 9.21167 40.4952 9.21167 30.2913V11.8098H29.3985Z" fill="#63A60E"/>
<path opacity="0.3" d="M46.692 20.7796C45.0153 22.5555 43.9961 24.8732 43.9961 27.4016C43.9961 31.1641 46.2318 34.445 49.5524 36.2209V30.2912C49.5524 26.8297 48.5332 23.5789 46.692 20.7796Z" fill="#63A60E"/>
<path d="M38.7685 13.9468C35.6122 15.6023 33.5081 18.7027 33.5081 22.2846C33.5081 27.5822 38.2095 31.8865 43.996 31.8865C46.0344 31.8865 47.9413 31.3447 49.5523 30.4116V30.2912C49.5523 23.1876 45.1796 17.017 38.7685 13.9468Z" fill="#63A60E"/>
<path opacity="0.5" d="M22.9216 15.3909C17.7269 15.3909 12.9597 17.0464 9.21167 19.8457V30.3205C9.21167 40.5245 18.253 48.802 29.3985 48.802H39.0645C42.5824 45.2502 44.7194 40.5546 44.7194 35.3773C44.7194 24.3306 34.9548 15.3909 22.9216 15.3909Z" fill="#E0EDCF"/>
<path d="M49.5524 48.7426L29.3985 48.7727C18.253 48.7727 9.21167 40.4951 9.21167 30.2912V11.8398L49.5524 48.7426Z" fill="#63A60E"/>
<path opacity="0.3" d="M12.335 18.4317C12.335 32.4584 24.7627 43.8061 40.0507 43.8061C41.3658 43.8061 42.648 43.7158 43.8974 43.5653L12.598 14.9401C12.4336 16.0839 12.335 17.2578 12.335 18.4317Z" fill="#63A60E"/>
<path opacity="0.3" d="M49.5523 48.7727L9.37598 11.9904C14.1103 18.4619 19.568 25.0237 25.1243 30.4417C29.4641 34.6557 41.9905 44.0771 49.5523 48.7727Z" fill="#63A60E"/>
<path opacity="0.3" d="M22.3956 23.8799L9.21167 11.8398V30.3213C9.21167 38.4784 14.9981 45.4014 22.9874 47.8396C19.5681 44.679 17.4639 40.3446 17.4639 35.5888C17.4639 31.0738 19.3379 26.9802 22.3956 23.8799Z" fill="#63A60E"/>
<path opacity="0.3" d="M40.3467 40.3447C36.9274 44.1674 31.7328 46.6356 25.9135 46.6356C22.0339 46.6356 18.4174 45.552 15.4255 43.6858C19.0421 46.8463 23.9408 48.8028 29.3656 48.8028H49.5524V48.7727L40.3467 40.3447Z" fill="#63A60E"/>
<path opacity="0.3" d="M10.3953 22.8866C10.3953 19.9067 10.9542 17.0171 12.0063 14.3683L9.21167 11.8398V30.3213C9.21167 40.5252 18.253 48.8028 29.3985 48.8028H49.5853V48.7727L47.5797 46.9366C44.6536 47.8998 41.5303 48.4115 38.2425 48.4115C22.8558 48.3814 10.3953 36.9734 10.3953 22.8866Z" fill="#E0EDCF"/>
<path d="M49.2235 52.3546C50.6372 51.9934 52.1167 52.776 52.4784 54.0703C52.8729 55.3646 52.0181 56.7191 50.5715 57.0502C49.1577 57.4114 47.6782 56.6288 47.3166 55.3345C46.9549 54.0402 47.8097 52.7158 49.2235 52.3546ZM48.6974 50.5185C46.1659 51.1506 44.6535 53.4984 45.3439 55.8161C46.0015 58.1338 48.5988 59.5184 51.1304 58.8863C53.662 58.2542 55.1743 55.8763 54.4839 53.5887C53.8263 51.271 51.229 49.9165 48.6974 50.5185Z" fill="#63A60E"/>
<path opacity="0.5" d="M52.0505 56.1768C51.6888 56.5983 51.1956 56.9294 50.6038 57.0799C49.1901 57.4411 47.7106 56.6584 47.349 55.3641C47.086 54.4009 47.4476 53.4377 48.2367 52.8658C47.8421 52.3541 47.5134 51.7822 47.1846 51.2103C45.6065 52.2337 44.8174 54.0698 45.3434 55.8758C46.001 58.1936 48.5983 59.5782 51.1299 58.9461C52.3135 58.6451 53.2669 57.9829 53.8916 57.1099C53.2669 56.8089 52.6423 56.5079 52.0505 56.1768Z" fill="#63A60E"/>
<path d="M10.1648 52.3546C11.5785 52.0235 13.058 52.8061 13.4196 54.1004C13.7813 55.3947 12.9265 56.7492 11.5127 57.0803C10.099 57.4114 8.61952 56.6288 8.25787 55.3345C7.89622 54.0402 8.75103 52.6857 10.1648 52.3546ZM9.63872 50.5185C7.10716 51.1205 5.59479 53.4984 6.25234 55.8161C6.90989 58.1338 9.50721 59.5184 12.0388 58.9164C14.5704 58.3144 16.0827 55.9365 15.458 53.6188C14.7676 51.3011 12.1703 49.9165 9.63872 50.5185Z" fill="#63A60E"/>
<path opacity="0.5" d="M12.9597 56.207C12.598 56.6284 12.1049 56.9595 11.5131 57.0799C10.0993 57.411 8.61984 56.6284 8.25819 55.3341C7.99517 54.3709 8.3897 53.4077 9.14588 52.8358C8.75135 52.3241 8.42258 51.7522 8.12668 51.1803C6.54856 52.1736 5.72662 54.0097 6.25266 55.8157C6.91021 58.1334 9.50754 59.518 12.0391 58.916C13.2227 58.6451 14.209 57.9528 14.8008 57.0799C14.1433 56.8391 13.5515 56.5381 12.9597 56.207Z" fill="#63A60E"/>
<path d="M10.4938 10.5455C9.86915 10.5455 9.34311 10.0639 9.34311 9.49205C9.34311 7.02384 8.58693 5.15763 7.14031 3.92353C4.80601 1.90682 1.28812 2.11752 1.25524 2.11752C0.630565 2.17772 0.071647 1.72622 0.00589198 1.15432C-0.0598631 0.582418 0.4333 0.0707164 1.05797 0.0105162C1.25524 0.0105162 5.59507 -0.290485 8.68556 2.32822C10.6582 3.98373 11.6445 6.39174 11.6445 9.46194C11.6445 10.0639 11.1514 10.5455 10.4938 10.5455Z" fill="#63A60E"/>
</svg>
